<?xml version="1.0" encoding="UTF-8"?>
<svg xmlns="http://www.w3.org/2000/svg" version="1.1" width="300" height="300" viewBox="0 0 300 300"><rect x="0" y="0" width="300" height="300" fill="#ffffff"/><g transform="scale(14.286)"><g transform="translate(0,0)"><path fill-rule="evenodd" d="M8 0L8 1L9 1L9 3L10 3L10 5L12 5L12 8L11 8L11 6L10 6L10 7L9 7L9 6L8 6L8 8L9 8L9 9L8 9L8 10L6 10L6 9L7 9L7 8L6 8L6 9L5 9L5 8L3 8L3 9L2 9L2 8L0 8L0 10L1 10L1 11L3 11L3 9L4 9L4 10L5 10L5 11L4 11L4 12L1 12L1 13L5 13L5 12L6 12L6 13L7 13L7 12L6 12L6 11L8 11L8 14L12 14L12 15L11 15L11 16L12 16L12 17L10 17L10 16L8 16L8 18L9 18L9 19L8 19L8 21L9 21L9 20L11 20L11 18L12 18L12 19L13 19L13 20L12 20L12 21L13 21L13 20L14 20L14 21L17 21L17 20L21 20L21 18L20 18L20 17L21 17L21 15L20 15L20 17L19 17L19 18L18 18L18 17L17 17L17 18L16 18L16 19L13 19L13 18L12 18L12 17L14 17L14 16L17 16L17 12L19 12L19 14L18 14L18 16L19 16L19 14L20 14L20 13L21 13L21 12L20 12L20 11L21 11L21 10L20 10L20 9L21 9L21 8L20 8L20 9L18 9L18 10L17 10L17 12L15 12L15 13L14 13L14 11L13 11L13 10L12 10L12 9L13 9L13 5L12 5L12 4L13 4L13 3L12 3L12 2L13 2L13 1L12 1L12 2L10 2L10 0ZM11 3L11 4L12 4L12 3ZM14 8L14 10L15 10L15 11L16 11L16 9L15 9L15 8ZM1 9L1 10L2 10L2 9ZM8 10L8 11L9 11L9 13L10 13L10 12L11 12L11 13L12 13L12 14L14 14L14 15L13 15L13 16L14 16L14 15L15 15L15 14L14 14L14 13L12 13L12 12L13 12L13 11L12 11L12 12L11 12L11 10L10 10L10 11L9 11L9 10ZM19 10L19 11L20 11L20 10ZM9 17L9 18L10 18L10 17ZM17 18L17 19L16 19L16 20L17 20L17 19L18 19L18 18ZM0 0L0 7L7 7L7 0ZM1 1L1 6L6 6L6 1ZM2 2L2 5L5 5L5 2ZM14 0L14 7L21 7L21 0ZM15 1L15 6L20 6L20 1ZM16 2L16 5L19 5L19 2ZM0 14L0 21L7 21L7 14ZM1 15L1 20L6 20L6 15ZM2 16L2 19L5 19L5 16Z" fill="#000000"/></g></g></svg>
